<svg width="485" height="519" viewBox="0 0 485 519" fill="none" xmlns="http://www.w3.org/2000/svg">
<g clip-path="url(#clip0_24_117)">
<path d="M547.214 657.459C572.768 639.575 592.986 615.026 605.837 586.281C618.688 557.536 623.718 525.608 620.422 493.706C617.126 461.803 605.619 431.052 587.059 404.542C568.499 378.033 543.54 356.7 514.691 342.688L606.924 278.106C588.368 251.593 563.412 230.256 534.565 216.239C505.718 202.223 473.996 196.02 442.588 198.256C411.18 200.491 381.194 211.086 355.643 228.974C330.092 246.863 309.878 271.415 297.032 300.162L230.026 204.468C204.472 222.352 184.254 246.901 171.403 275.646C158.552 304.391 153.522 336.32 156.818 368.222C160.114 400.124 171.621 430.876 190.181 457.385C208.741 483.894 233.7 505.227 262.549 519.239L170.316 583.822C188.872 610.334 213.827 631.671 242.675 645.688C271.522 659.705 303.244 665.907 334.652 663.672C366.06 661.436 396.046 650.842 421.597 632.953C447.148 615.064 467.362 590.512 480.208 561.765L547.214 657.459Z" fill="#FFF5F5"/>
</g>
<defs>
<clipPath id="clip0_24_117">
<rect width="553" height="533" fill="white" transform="translate(436.608) rotate(55)"/>
</clipPath>
</defs>
</svg>
